<?xml version="1.0" encoding="UTF-8" standalone="no"?>
<!-- Created with Inkscape (http://www.inkscape.org/) -->

<svg
   xmlns:dc="http://purl.org/dc/elements/1.1/"
   xmlns:cc="http://creativecommons.org/ns#"
   xmlns:rdf="http://www.w3.org/1999/02/22-rdf-syntax-ns#"
   xmlns:svg="http://www.w3.org/2000/svg"
   xmlns="http://www.w3.org/2000/svg"
   xmlns:sodipodi="http://sodipodi.sourceforge.net/DTD/sodipodi-0.dtd"
   xmlns:inkscape="http://www.inkscape.org/namespaces/inkscape"
   width="744.09448819"
   height="1052.3622047"
   id="svg2"
   version="1.1"
   inkscape:version="0.47 r22583"
   sodipodi:docname="catlg.svg"
   inkscape:export-filename="/home/gsf/catlg.png"
   inkscape:export-xdpi="85.544556"
   inkscape:export-ydpi="85.544556">
  <defs
     id="defs4">
    <inkscape:perspective
       sodipodi:type="inkscape:persp3d"
       inkscape:vp_x="0 : 526.18109 : 1"
       inkscape:vp_y="0 : 1000 : 0"
       inkscape:vp_z="744.09448 : 526.18109 : 1"
       inkscape:persp3d-origin="372.04724 : 350.78739 : 1"
       id="perspective10" />
  </defs>
  <sodipodi:namedview
     id="base"
     pagecolor="#ffffff"
     bordercolor="#666666"
     borderopacity="1.0"
     inkscape:pageopacity="0.0"
     inkscape:pageshadow="2"
     inkscape:zoom="4.8724077"
     inkscape:cx="137.60121"
     inkscape:cy="951.51175"
     inkscape:document-units="px"
     inkscape:current-layer="layer1"
     showgrid="false"
     inkscape:snap-global="true"
     inkscape:window-width="1024"
     inkscape:window-height="526"
     inkscape:window-x="0"
     inkscape:window-y="25"
     inkscape:window-maximized="1">
    <inkscape:grid
       type="xygrid"
       id="grid2816"
       empspacing="5"
       visible="true"
       enabled="true"
       snapvisiblegridlinesonly="true" />
  </sodipodi:namedview>
  <metadata
     id="metadata7">
    <rdf:RDF>
      <cc:Work
         rdf:about="">
        <dc:format>image/svg+xml</dc:format>
        <dc:type
           rdf:resource="http://purl.org/dc/dcmitype/StillImage" />
        <dc:title></dc:title>
      </cc:Work>
    </rdf:RDF>
  </metadata>
  <g
     inkscape:label="Layer 1"
     inkscape:groupmode="layer"
     id="layer1">
    <path
       style="fill:#000000;fill-opacity:1;stroke:#000000;stroke-width:1px;stroke-linecap:round;stroke-linejoin:round;stroke-opacity:1;opacity:0.85"
       d="m 85,77.362183 0,34.999997 4.5,0 10.5,0 0,-5 -5,0 -5,0 -10,0 0,-24.999997 20,0 0,-10 -10,0 -5,5 z"
       id="path2818"
       sodipodi:nodetypes="ccccccccccccc"
       inkscape:export-xdpi="89.110001"
       inkscape:export-ydpi="89.110001" />
    <path
       style="fill:#000000;fill-opacity:1;stroke:#000000;stroke-width:1px;stroke-linecap:round;stroke-linejoin:round;stroke-opacity:1;opacity:0.85"
       d="m 105,92.362183 0,15.012817 5,5 10,0 0,-5 5,5 0,-15.012817 -5,-5 -15,0 z m 5,5 5,0 0,9.999997 -5,-5 0,-5.000017 0,2e-5 z"
       id="path2822"
       sodipodi:nodetypes="ccccccccccccccc"
       inkscape:export-filename="/home/gsf/path2818.png"
       inkscape:export-xdpi="89.110001"
       inkscape:export-ydpi="89.110001" />
    <path
       style="fill:#000000;fill-opacity:1;stroke:#000000;stroke-width:1px;stroke-linecap:round;stroke-linejoin:round;stroke-opacity:1;opacity:0.85"
       d="m 125,87.362186 5,5 5,0 0,19.999994 5,0 0,-19.999994 5,0 0,-5 -5,0 0,-10 -5,0 0,10 -10,0 z"
       id="path2824"
       sodipodi:nodetypes="ccccccccccccc"
       inkscape:export-filename="/home/gsf/path2818.png"
       inkscape:export-xdpi="89.110001"
       inkscape:export-ydpi="89.110001" />
    <path
       style="fill:#000000;fill-opacity:1;stroke:#000000;stroke-width:1px;stroke-linecap:round;stroke-linejoin:round;stroke-opacity:1;opacity:0.85"
       d="m 150,77.362186 0,34.999994 5,0 0,-29.999994 -5,-5 z"
       id="path2826"
       sodipodi:nodetypes="ccccc"
       inkscape:export-filename="/home/gsf/path2818.png"
       inkscape:export-xdpi="89.110001"
       inkscape:export-ydpi="89.110001" />
    <path
       style="fill:#000000;fill-opacity:1;stroke:#000000;stroke-width:1px;stroke-linecap:round;stroke-linejoin:round;stroke-opacity:1;opacity:0.85"
       d="m 160,92.362186 0.5,15.012814 5,5 9.5,-0.0128 0,5 5,0 0,-19.999994 -5,-5 -15,0 0,-2e-5 z m 15,24.999994 -10,0 0,5 10,0 0,-5 z m -10,-19.999997 5,0 0,9.999997 -5,-5 0,-4.999997 z"
       id="path2828"
       sodipodi:nodetypes="cccccccccccccccccccc"
       inkscape:export-filename="/home/gsf/path2818.png"
       inkscape:export-xdpi="89.110001"
       inkscape:export-ydpi="89.110001" />
  </g>
</svg>
